# xmcd
#
# Track frame offsets:
#	150
#	14497
#	26495
#	37744
#	47927
#	60299
#	75282
#	86674
#	96595
#	107004
#	117454
#	132490
#	144864
#	153788
#	169972
#	179844
#	196726
#	210644
#	227585
#	237582
#
# Disc length: 3304 seconds
#
# Revision: 0
# Processed by: cddbd v1.5.2PL0 Copyright (c) Steve Scherf et al.
# Submitted via: EasyCDDAExtractor 16.0.1.1
#
DISCID=090ce614
DTITLE=Boxcar Willie - Boxcar Willie -78+Take Me Home-79
DYEAR=1978
DGENRE=Country
TTITLE0=This Is Texas Land
TTITLE1=I've Got A Bad Case Of Feelin' Sorry For Me
TTITLE2=I Came So Close To Callin' You Last Night
TTITLE3=The Fragrance Of Her Perfume
TTITLE4=Woman You're Just Like Water
TTITLE5=Blue  Blue Nights-Blue  Blue Day
TTITLE6=The Lord Made A Hobo Out Of Me
TTITLE7=Brown Eyed Girl Of Berlin
TTITLE8=The Bull FIghter
TTITLE9=Six Pound Fish
TTITLE10=Take Me Home
TTITLE11=Cold Windy City Of Chicago
TTITLE12=Lonesome Hobo
TTITLE13=Trouble
TTITLE14=Hank  You Still Make Me Cry
TTITLE15=Train Medley;Fireball Mail+Train Of Love+Walking Cane+Wreck Of The Ol
TTITLE15=d #97+Orange Blossom Special+Wabash Cannonball+Night Train To Memphis
TTITLE16=From A Rolls To The Rails
TTITLE17=From A Boxcar Door
TTITLE18=I Wake Up Every Morning With A Smile On My Face
TTITLE19=I Remember Roy Rogers
EXTD=
EXTT0=
EXTT1=
EXTT2=
EXTT3=
EXTT4=
EXTT5=
EXTT6=
EXTT7=
EXTT8=
EXTT9=
EXTT10=
EXTT11=
EXTT12=
EXTT13=
EXTT14=
EXTT15=
EXTT16=
EXTT17=
EXTT18=
EXTT19=
PLAYORDER=
